<?xml version="1.0" encoding="UTF-8"?>
<!DOCTYPE svg PUBLIC "-//W3C//DTD SVG 1.1//EN" "http://www.w3.org/Graphics/SVG/1.1/DTD/svg11.dtd">
<!-- Creator: CorelDRAW 2019 (64-Bit) -->
<svg xmlns="http://www.w3.org/2000/svg" xml:space="preserve" width="62.2824mm" height="16.5844mm" version="1.1" style="shape-rendering:geometricPrecision; text-rendering:geometricPrecision; image-rendering:optimizeQuality; fill-rule:evenodd; clip-rule:evenodd"
viewBox="0 0 6908.01 1839.45"
 xmlns:xlink="http://www.w3.org/1999/xlink">
 <defs>
  <style type="text/css">
   <![CDATA[
    .str0 {stroke:#662D91;stroke-width:8.45;stroke-miterlimit:22.9256}
    .fil0 {fill:#FCCB10}
    .fil2 {fill:#700070}
    .fil1 {fill:#FF7900}
   ]]>
  </style>
 </defs>
 <g id="Layer_x0020_1">
  <metadata id="CorelCorpID_0Corel-Layer"/>
  <path class="fil0" d="M2605.82 604.98c94.79,-5.86 279.69,-5.86 372.14,-5.86 92.46,0 92.46,0 56.74,133.3 -35.73,133.29 -107.15,399.87 -142.85,533.29 -35.69,133.41 -35.65,133.64 98.38,134.35 134.01,0.71 402,1.87 536.58,3.05 134.58,1.16 135.76,2.34 145.12,-32.76 9.36,-35.12 26.92,-106.5 34.53,-142.19 7.6,-35.69 5.26,-35.69 98.89,-35.12 93.61,0.59 283.2,1.76 378,2.34 94.79,0.59 94.79,0.59 74.31,71.4 -20.49,70.8 -61.45,212.4 -92.46,300.17 -31.01,87.78 -52.07,121.72 -75.48,149.8 -23.41,28.08 -49.16,50.32 -74.9,67.29 -25.75,16.97 -51.5,28.67 -304.27,35.69 -252.78,7.02 -732.6,9.36 -984.79,9.36 -252.21,0 -276.78,-2.34 -300.77,-12.88 -23.99,-10.53 -47.39,-29.25 -69.63,-53.83 -22.24,-24.58 -43.3,-55 -59.1,-86.6 -15.81,-31.6 -26.33,-64.36 -28.09,-108.24 -1.75,-43.89 5.27,-98.89 43.31,-245.18 38.03,-146.28 107.07,-383.85 143.93,-513.76 36.87,-129.9 41.55,-152.14 46.23,-169.11 4.68,-16.97 9.36,-28.67 104.16,-34.52z"/>
  <path class="fil1" d="M2580.66 427.1c-2.93,-12.88 2.93,-39.78 14.04,-69.63 11.12,-29.85 27.51,-62.61 45.64,-93.03 18.15,-30.42 38.03,-58.52 60.27,-84.26 22.24,-25.74 46.81,-49.15 71.97,-69.04 25.17,-19.9 50.91,-36.28 74.31,-51.5 23.4,-15.22 44.47,-29.26 309.54,-38.03 265.06,-8.77 774.14,-12.29 1033.94,-12.88 259.79,-0.58 270.33,1.76 284.37,13.47 14.04,11.7 31.6,32.76 46.81,56.75 15.22,23.99 28.09,50.91 31.02,83.67 2.93,32.76 -4.1,71.4 -25.75,154.48 -21.64,83.09 -57.92,210.65 -76.07,274.42 -18.13,63.79 -18.13,63.79 -111.17,62.61 -93.05,-1.16 -279.12,-3.5 -372.15,-4.68 -93.05,-1.16 -93.05,-1.16 -83.1,-30.42 9.95,-29.26 29.85,-87.78 35.69,-123.47 5.86,-35.69 -2.33,-48.56 -15.79,-54.41 -13.45,-5.85 -32.19,-4.68 -184.32,-4.09 -152.14,0.59 -437.69,0.59 -613.22,0.59 -175.54,0 -241.08,0 -300.18,0 -59.1,0 -111.77,0 -143.94,0 -32.19,0 -43.89,0 -55.59,0.58 -11.7,0.59 -23.4,1.76 -26.33,-11.11z"/>
  <path class="fil2" d="M4675.45 1825.58c89.53,9.36 274.44,9.36 366.88,9.94 92.46,0.59 92.46,1.76 110,-66.7 17.56,-68.46 52.67,-206.56 75.49,-283.21 22.82,-76.65 33.35,-91.86 159.74,-98.3 126.4,-6.43 368.65,-4.09 497.96,-1.75 129.32,2.34 145.7,4.68 154.47,14.04 8.78,9.36 9.95,25.74 -6.43,91.28 -16.38,65.54 -50.32,180.22 -69.04,246.93 -18.73,66.71 -22.24,85.43 59.68,94.21 81.92,8.77 249.27,7.61 342.89,7.02 93.62,-0.59 113.51,-0.59 127.56,-9.95 14.04,-9.36 22.23,-28.08 55.58,-147.45 33.35,-119.38 91.87,-339.39 124.06,-463.43 32.18,-124.06 38.03,-152.14 26.92,-168.52 -11.12,-16.38 -39.21,-21.06 -252.2,-21.65 -212.99,-0.58 -610.89,2.93 -823.3,4.09 -212.41,1.18 -239.32,0.01 -249.27,-12.87 -9.95,-12.88 -2.93,-37.44 22.23,-124.63 25.17,-87.19 68.47,-236.98 94.21,-321.83 25.75,-84.84 33.94,-104.74 50.33,-118.78 16.38,-14.05 40.95,-22.24 159.15,-24.58 118.2,-2.34 330.01,1.18 447.05,4.09 117.03,2.93 139.26,5.27 152.13,15.81 12.88,10.53 16.38,29.25 2.93,95.38 -13.45,66.12 -43.89,179.64 -62.02,246.93 -18.15,67.29 -23.99,88.35 -11.12,97.13 12.88,8.78 44.48,5.27 126.4,4.1 81.92,-1.18 214.16,0 291.98,1.16 77.83,1.18 101.23,2.34 115.86,-8.77 14.63,-11.12 20.47,-34.53 42.13,-124.05 21.65,-89.53 59.1,-245.18 78.99,-339.39 19.9,-94.21 22.24,-126.97 21.06,-156.23 -1.16,-29.26 -5.85,-55 -15.79,-78.99 -9.95,-23.99 -25.17,-46.23 -46.23,-69.04 -21.06,-22.82 -47.98,-46.22 -76.65,-62.02 -28.67,-15.79 -59.1,-23.99 -296.66,-30.42 -237.57,-6.44 -682.27,-11.12 -919.85,-11.12 -237.56,0 -267.99,4.68 -293.73,13.47 -25.74,8.77 -46.81,21.64 -66.7,37.44 -19.9,15.79 -38.62,34.53 -57.34,55.59 -18.72,21.06 -37.44,44.47 -52.07,69.63 -14.63,25.16 -25.17,52.07 -38.04,81.92 -12.87,29.84 -28.08,62.6 -39.78,94.2 -11.7,31.6 -19.9,62.02 -28.08,91.28 -8.2,29.26 -16.38,57.34 -64.37,224.7 -47.97,167.35 -135.75,473.96 -184.89,647.16 -49.16,173.19 -59.68,212.99 -70.81,252.19 -11.11,39.21 -22.82,77.83 -32.76,110.59 -9.95,32.78 -18.15,59.68 -25.17,82.51 -7.02,22.82 -12.87,41.54 76.65,50.91z"/>
  <path class="fil2 str0" d="M855.46 1416.52c212.4,2.34 603.27,2.34 814.51,1.75 211.24,-0.58 242.84,-1.75 255.13,9.95 12.28,11.7 5.27,36.28 -9.36,67.88 -14.63,31.6 -36.87,70.22 -63.2,105.32 -26.33,35.1 -56.75,66.7 -89.53,95.38 -32.76,28.67 -67.88,54.43 -100.06,74.9 -32.19,20.49 -61.44,35.69 -98.89,44.47 -37.44,8.78 -83.09,11.12 -287.89,10.54 -204.79,-0.59 -568.76,-4.09 -774.14,-4.68 -205.38,-0.59 -252.2,1.75 -288.48,-4.68 -36.28,-6.43 -62.02,-21.65 -86.6,-40.96 -24.57,-19.31 -47.97,-42.71 -67.29,-64.95 -19.31,-22.24 -34.52,-43.3 -43.88,-73.72 -9.36,-30.42 -12.88,-70.22 -11.12,-111.18 1.76,-40.95 8.78,-83.09 19.32,-128.14 10.53,-45.05 24.57,-93.03 73.72,-263.31 49.15,-170.29 133.41,-462.85 182.57,-626.1 49.15,-163.25 63.19,-197.19 80.75,-229.38 17.56,-32.18 38.62,-62.6 63.78,-90.11 25.17,-27.51 54.43,-52.07 83.1,-74.31 28.67,-22.24 56.75,-42.13 83.67,-58.52 26.92,-16.38 52.66,-29.25 91.28,-37.44 38.62,-8.2 90.11,-11.7 310.7,-13.45 220.6,-1.76 610.31,-1.76 815.69,-1.18 205.38,0.59 226.44,1.75 253.36,14.63 26.92,12.88 59.68,37.44 84.85,64.36 25.16,26.92 42.71,56.18 56.75,87.78 14.04,31.59 24.58,65.53 28.08,107.08 3.52,41.54 0,90.69 -37.44,241.08 -37.44,150.38 -108.84,401.99 -148.04,543 -39.21,141.02 -46.23,171.44 -65.54,186.66 -19.31,15.22 -50.9,15.22 -126.97,14.63 -76.07,-0.59 -196.61,-1.75 -272.67,-2.93 -76.07,-1.16 -107.66,-2.34 -119.95,-16.38 -12.29,-14.04 -5.27,-40.96 29.26,-158.57 34.52,-117.61 96.54,-325.92 131.66,-445.88 35.1,-119.95 43.3,-151.55 36.86,-170.86 -6.43,-19.31 -27.5,-26.33 -155.06,-28.08 -127.56,-1.75 -361.61,1.75 -489.76,3.5 -128.14,1.76 -150.38,1.76 -165.6,16.39 -15.21,14.63 -23.4,43.88 -64.94,184.32 -41.55,140.43 -116.45,392.04 -156.82,537.16 -40.37,145.11 -46.23,183.73 -32.19,205.38 14.04,21.65 47.98,26.33 260.39,28.67z"/>
 </g>
</svg>
