<svg width="158" height="157" viewBox="0 0 158 157" fill="none" xmlns="http://www.w3.org/2000/svg">
<path d="M79.8931 14.7188C43.7938 14.2343 14.3231 43.5185 14.8107 79.3893C15.2921 113.791 43.4821 141.803 78.1032 142.281C114.209 142.772 143.673 113.488 143.179 77.6169C142.704 43.2088 114.514 15.1972 79.8931 14.7188ZM118.905 115.067C118.783 115.199 118.632 115.303 118.464 115.37C118.296 115.438 118.116 115.468 117.935 115.459C117.754 115.45 117.578 115.401 117.418 115.316C117.258 115.232 117.119 115.113 117.011 114.969C114.25 111.38 110.87 108.308 107.028 105.895C99.1709 100.885 89.2157 98.1251 78.9982 98.1251C68.7806 98.1251 58.8254 100.885 50.9686 105.895C47.126 108.307 43.7457 111.378 40.9856 114.966C40.8771 115.11 40.7381 115.228 40.5784 115.313C40.4187 115.398 40.2421 115.447 40.0613 115.456C39.8805 115.465 39.6998 115.435 39.5321 115.367C39.3644 115.3 39.2137 115.196 39.0908 115.064C30.0357 105.351 24.9063 92.6586 24.6857 79.42C24.1826 49.5808 48.8239 24.6049 78.8655 24.5313C108.907 24.4577 133.311 48.6977 133.311 78.5001C133.321 92.0579 128.176 105.119 118.905 115.067Z" fill="#F0F0F0"/>
<path d="M78.9965 44.1562C72.9111 44.1562 67.4088 46.4223 63.499 50.5405C59.5891 54.6587 57.6357 60.353 58.077 66.4644C58.9719 78.5 68.3562 88.3125 78.9965 88.3125C89.6368 88.3125 99.0027 78.5 99.9161 66.4674C100.373 60.4143 98.4348 54.7721 94.4602 50.5773C90.5348 46.4377 85.0419 44.1562 78.9965 44.1562Z" fill="#F0F0F0"/>
</svg>
